PathFileType	4	(X/Y/Z)	C:\Users\avatar\Documents\avatar\mocap1\10002-20130731010438-Unnamed.trc
DataRate	CameraRate	NumFrames	NumMarkers	Units	OrigDataRate	OrigDataStartFrame	OrigNumFrames
400.00	400.00	      27	0	mm	400.00	493	      1313
Frame#	Time	
		

493	1.230				-639.22510	45.21021	71.05270	-566.13605	135.15114	370.37234	-499.55313	120.08227	269.65479	-6.61422	1226.08545	260.70288	0.45928	1023.98175	549.45593	-938.62708	636.07849	206.02768	175.11151	1340.78650	180.76283				-672.11157	735.74176	32.42732	-1012.94183	890.15625	-281.80081				-828.96411	1022.44928	77.83704	
494	1.232				-639.25024	45.79866	71.19453	-566.16711	135.17590	370.36578	-499.59799	120.32601	269.61603	-6.47423	1226.43665	261.06302	0.44313	1023.97406	549.44751	-939.08740	635.14026	206.28810	176.59949	1341.47205	181.64447				-673.92059	735.98328	32.96115	-1014.93835	889.27740	-282.44904				-828.96960	1022.89227	77.88159	
495	1.235				-639.11206	45.09499	71.27163	-566.23010	135.14026	370.34821	-499.41666	120.66199	269.73605	-6.49786	1226.57593	261.37811	0.63604	1023.97321	549.56848	-939.78955	634.11456	206.72873	176.95110	1341.62256	182.24355				-674.43677	736.08197	33.15169	-1016.25391	888.21393	-282.77866				-829.07556	1022.89142	77.94054	
496	1.237				-639.23322	45.20222	71.07128	-566.29144	135.11586	370.35919	-499.41504	120.71645	269.73749	-6.92891	1226.51526	261.42728	0.44494	1024.00818	549.48358				177.30569	1341.62378	182.44354				-674.87219	736.14557	33.36308	-1017.26227	887.48792	-283.09390				-829.09808	1022.90540	77.96286	
497	1.240				-639.56818	45.27091	71.11720	-566.34930	135.09662	370.33124	-499.24661	121.03555	269.81985	-7.10680	1226.53040	261.53119	0.42885	1024.01257	549.48065				178.31447	1341.94653	183.59923				-676.13367	736.38177	34.78569	-1017.88959	887.53607	-283.26559				-829.30029	1022.91211	78.04340	
498	1.242	1670.86682	1318.57922	673.40784	-639.53735	45.28585	71.15131	-566.41827	135.05626	370.32834	-499.18381	121.08794	269.92105	-7.12889	1226.59631	261.61780	0.41842	1024.03625	549.50226				179.46603	1342.25037	184.41418				-674.44806	736.15607	35.17482	-1020.58374	885.78973	-284.04440				-827.96686	1023.11499	78.42232	
499	1.245	1671.96313	1318.30872	673.96143	-639.40332	45.13337	71.33759	-566.41541	135.08238	370.34341	-499.11276	121.17789	269.97488	-7.69905	1226.66785	261.73438	0.67318	1024.42078	549.88086				180.25143	1342.21606	184.89413				-673.80115	736.14459	35.32346	-1022.66333	884.00427	-285.03403				-826.24530	1023.24298	78.88773	
500	1.247	1673.45471	1317.80005	674.85620	-639.42444	45.10861	71.32272	-566.49353	135.02742	370.31796	-498.99792	121.35830	270.05728	-7.88448	1226.79553	261.86887	0.65030	1024.42053	549.87958				181.08199	1342.53052	185.69754				-670.00732	735.94226	36.19637	-1022.78821	883.90680	-284.84183				-826.47552	1023.54907	78.94386	
501	1.250	1675.52222	1317.48389	675.76465	-639.50714	45.25909	71.15958	-566.48096	135.03300	370.33325	-499.03424	121.44159	270.03351	-8.02937	1226.85059	262.14917	0.63901	1024.42090	549.87463				181.56071	1342.59814	186.24275				-670.00208	735.99805	36.26527	-1022.92236	883.79132	-284.64120				-826.41718	1023.57214	78.98602	
502	1.253				-639.17712	45.14294	71.12608	-566.90759	134.83444	370.38904	-498.83456	121.87196	270.13379	-8.17893	1226.90735	262.45105	0.43187	1024.41821	549.86658				183.05586	1343.01074	187.10265				-672.34363	736.71570	37.00560	-1024.21606	882.67145	-284.99417				-826.50885	1023.58405	79.01084	
503	1.255	-197.69582	56.42205	50.29936	-639.37646	45.09914	71.35552	-566.91504	134.82565	370.39218	-499.15466	121.84826	270.31613	-8.26662	1227.00220	262.81390	0.61365	1024.42017	549.87695				184.29181	1343.27979	187.86780				-672.95679	736.86591	37.22767	-1025.70215	881.55603	-285.41614				-826.48474	1023.58252	79.03789	
504	1.258				-639.16339	45.15551	71.15689	-566.95490	134.81100	370.39398	-499.12534	121.97969	270.50504	-8.29687	1227.06396	263.09802	0.41664	1024.41785	549.86798	-195.36842	55.89170	50.81107	184.84155	1343.27832	188.45320				-674.33423	737.22321	37.67780	-1027.05762	880.82379	-285.69946				-826.47186	1023.59436	79.09144	
505	1.260	-369.82639	1520.27075	-111.40585	-639.17371	45.14785	71.13927	-566.97437	134.80089	370.41525	-499.13016	121.99172	270.54892				0.39753	1024.41589	549.88153	-195.28152	55.87027	50.85550	185.39856	1343.38074	188.95303				-674.36945	737.26196	37.80424	-1027.68335	880.62421	-285.72858				-826.54340	1023.60162	79.13160	
506	1.263				-638.69299	45.51832	71.45918	-566.94293	134.84035	370.44861	-499.26859	122.04069	270.63910	-362.33685	1520.79736	-107.92218	0.38923	1024.41431	549.89282	-195.36046	55.89566	50.80889	186.30524	1343.33020	189.53534				-674.27020	738.02643	38.66305	-1029.38623	879.29419	-286.41525				-826.53491	1023.60052	79.14500	
507	1.265	-370.22171	1520.57410	-111.49444	-639.03235	45.01316	71.36860	-567.05029	134.72858	370.41855	-499.40604	122.07896	270.64459				0.37392	1024.41309	549.90070	-195.39064	55.91574	50.82647	187.36909	1343.53357	190.29338				-673.35400	737.74463	39.34356	-1030.85413	878.37964	-286.95877				-826.45618	1023.60046	79.16660	
508	1.268				-639.38794	45.11344	71.34329	-567.32690	134.62248	370.42230	-499.29959	122.14643	270.74991	-361.79480	1521.74097	-107.60714	0.36050	1024.41101	549.91626	-195.28197	55.89112	50.85479	188.14551	1343.61353	191.06708				-673.86407	738.16113	39.70063	-1032.00098	877.74976	-287.13290				-826.57867	1023.61707	79.21417	
509	1.270	-361.12689	1521.99805	-107.20656	-639.39673	45.09855	71.33978	-567.32397	134.67468	370.44318	-499.31299	122.25635	270.76385				0.10873	1024.41309	549.86310	-195.23477	55.88446	50.83927	188.44041	1343.63110	191.28731				-671.99310	738.13605	40.22900	-1033.18616	877.06274	-287.44113				-826.55188	1023.60809	79.22643	
510	1.273	-361.18594	1522.05420	-107.16470	-639.39850	45.08247	71.34502	-567.29919	134.69069	370.48691	-499.31104	122.29736	270.80176	1693.23938	1315.27759	685.53784	0.09665	1024.41138	549.87543	-195.25858	55.89440	50.85595	190.16347	1343.92578	192.22920				-674.24469	738.68756	40.94518	-1034.56458	875.99359	-288.13821				-826.66162	1023.60474	79.28023	
511	1.275	-353.10242	1523.12231	-103.29163	-639.40369	45.11175	71.35656	-567.35370	134.64119	370.49796	-499.55930	122.48090	270.93753				0.08303	1024.40881	549.89435	-195.17296	55.90622	50.85868	191.42363	1344.44946	193.13878	1694.43713	1314.92566	686.21948	-674.34619	738.71497	41.05850	-1036.89746	874.28345	-289.13455				-827.80939	1023.79816	79.60695	
512	1.278	-353.59280	1523.37463	-103.39793	-639.07581	45.63427	71.44189	-567.75867	134.46098	370.37775	-499.47507	122.65365	271.00955				0.15963	1024.38586	550.09460	-193.50777	55.85248	51.21771	192.02158	1344.42017	193.77199	1695.79199	1314.50940	687.01172	-673.67230	739.02118	41.43021	-1037.13672	874.33044	-289.26672				-827.87073	1023.78827	79.64857	
513	1.280	-354.84879	1523.47424	-103.65272	-639.39001	45.12609	71.37547	-567.84521	134.41449	370.36905	-499.48425	122.75553	271.03674				0.19481	1024.75635	550.51788	-193.58826	55.88009	51.17445	193.19017	1344.73694	194.47839	1702.33679	1316.01819	690.62738	-673.75262	739.59760	42.22223	-1038.59314	873.59247	-289.55615				-827.80731	1023.78491	79.66290	
514	1.283	-355.05988	1523.49670	-103.69571	-639.37958	45.14047	71.38636	-567.86047	134.37250	370.39966	-499.55093	122.64828	271.07535	-597.45752	160.45305	350.50629	0.03877	1024.46460	550.80231	-194.88884	56.36538	51.52475	194.41620	1344.87659	195.22157	1703.94763	1315.77539	691.40765	-675.63446	739.59375	42.80206	-1039.67700	872.67755	-290.10083				-827.89990	1023.76404	79.70554	
515	1.285							-567.95496	134.30226	370.39529	-499.52899	122.77836	271.13193				0.03720	1024.45898	550.82458	-193.59901	55.91259	51.17483	195.06757	1345.06860	195.77510	1705.58484	1315.40466	692.35474	-672.78131	739.55426	43.67935							-827.83191	1023.76263	79.72298	
516	1.288	-651.50250	47.99211	78.45307				-568.02716	134.25125	370.39597	-499.47382	122.80246	271.21658				0.04132	1024.46887	550.84125	-191.90916	55.83449	51.52962	196.40062	1345.29333	196.59805	1706.86694	1315.09485	693.11182	-674.19684	739.80292	44.29879							-828.02301	1023.39819	79.78425	
517	1.290				-651.49438	48.02733	78.44526	-568.05579	134.23491	370.42603	-499.82803	122.64371	271.36526	-355.74634	1523.58948	-103.83608	0.05711	1024.47766	550.87671	-192.96359	56.28920	51.89650	197.76073	1345.50952	197.27328	1708.91077	1314.84998	693.98419	-672.15228	739.96033	44.76957							-827.87177	1023.75110	79.77531	
518	1.293	-561.00104	1036.30078	379.07993	-651.04901	48.64478	78.16265				-499.82220	122.70207	271.57623				-0.05979	1024.47083	550.97900	-193.04044	56.31878	51.85659	198.27724	1345.59521	197.64166	1709.68909	1314.65527	694.52954	-669.90045	739.98846	45.28952							-828.07568	1023.38751	79.84838	
519	1.295				-651.54944	47.99855	78.49269	-561.15643	1036.30225	379.07800	-500.01062	122.70194	271.66711				-0.06012	1024.46973	550.98773	-193.12241	56.31055	51.86834	199.23885	1345.80664	198.38876	1711.62000	1314.42395	695.45624	-669.74017	740.01971	45.32626	
